# xmcd
#
# Track frame offsets:
# 150
# 22155
# 43475
# 64425
# 98495
# 121265
# 150702
# 180422
# 207572
# 227572
#
# Disc length: 3333 seconds
#
# Revision: 0
# Processed by: cddbd v1.4PL0 Copyright (c) Steve Scherf et al.
# Submitted via: Axialis_AX_CDPlayer 2.6
#
DISCID=890d030a
DTITLE=crazyfingers - The Grass Is Dead
DYEAR=1900
DGENRE=
TTITLE0=Sugaree
TTITLE1=China Doll
TTITLE2=They Love Each Other
TTITLE3=Row Jimmy
TTITLE4=So Many Roads
TTITLE5=He's Gone
TTITLE6=Lazy River Road
TTITLE7=Here Comes Sunshine
TTITLE8=Althea
TTITLE9=Black Muddy River
EXTD=
EXTT0=
EXTT1=
EXTT2=
EXTT3=
EXTT4=
EXTT5=
EXTT6=
EXTT7=
EXTT8=
EXTT9=
PLAYORDER=
